<?xml version="1.0" encoding="UTF-8"?>
<svg width="209.8" height="81.2" version="1.1" viewBox="0 0 55.51 21.484" xmlns="http://www.w3.org/2000/svg"><g transform="translate(-76.041 -213.34)"><g transform="matrix(.26458 0 0 .26458 9.9133e-7 147.01)" fill="#00465b"><g><path class="st331" d="m327.9 289.8c0 7.6-1.5 12.2-4.7 15.1-3.2 3-7.9 4-12 4-4 0-8.3-1-11-2.7l1.5-4.6c2.2 1.4 5.6 2.6 9.7 2.6 6.1 0 10.7-3.2 10.7-11.5v-3.7h-0.1c-1.8 3.1-5.4 5.5-10.5 5.5-8.2 0-14.1-7-14.1-16.1 0-11.2 7.3-17.6 14.9-17.6 5.7 0 8.9 3 10.3 5.7h0.1l0.3-5h5.3c-0.1 2.4-0.3 5.1-0.3 9.1v19.2zm-5.9-15.3c0-1-0.1-1.9-0.3-2.7-1.1-3.5-4-6.4-8.4-6.4-5.7 0-9.8 4.9-9.8 12.5 0 6.5 3.3 11.9 9.8 11.9 3.7 0 7-2.3 8.3-6.1 0.3-1 0.5-2.2 0.5-3.2v-6z"/><path class="st331" d="m367.8 277.7c0 12.2-8.5 17.6-16.5 17.6-8.9 0-15.8-6.6-15.8-17 0-11.1 7.2-17.6 16.4-17.6 9.5 0 15.9 6.9 15.9 17zm-26.2 0.4c0 7.2 4.2 12.7 10 12.7 5.7 0 10-5.4 10-12.8 0-5.6-2.8-12.7-9.9-12.7s-10.1 6.5-10.1 12.8z"/><path class="st331" d="m398.9 293.3c-1.6 0.8-5.1 2-9.5 2-10 0-16.5-6.8-16.5-16.9 0-10.2 7-17.6 17.8-17.6 3.6 0 6.7 0.9 8.3 1.7l-1.4 4.6c-1.4-0.8-3.7-1.6-7-1.6-7.6 0-11.7 5.6-11.7 12.5 0 7.7 4.9 12.4 11.5 12.4 3.4 0 5.7-0.9 7.4-1.6z"/><path class="st331" d="m406 271.8c0-3.9-0.1-7.2-0.3-10.3h5.3l0.2 6.5h0.3c1.5-4.4 5.1-7.2 9.2-7.2 0.7 0 1.2 0.1 1.7 0.2v5.7c-0.6-0.1-1.2-0.2-2-0.2-4.2 0-7.2 3.2-8.1 7.7-0.1 0.8-0.3 1.8-0.3 2.8v17.6h-6z"/><path class="st331" d="m487.2 277.7c0 12.2-8.5 17.6-16.5 17.6-8.9 0-15.8-6.6-15.8-17 0-11.1 7.2-17.6 16.4-17.6 9.5 0 15.9 6.9 15.9 17zm-26.2 0.4c0 7.2 4.2 12.7 10 12.7 5.7 0 10-5.4 10-12.8 0-5.6-2.8-12.7-9.9-12.7s-10.1 6.5-10.1 12.8z"/></g><g><path class="st331" d="m316.7 315.8v6h-0.8v-6z"/><path class="st331" d="m329.5 321.6c-0.3 0.1-0.9 0.3-1.7 0.3-1.8 0-3.2-1.1-3.2-3s1.4-3.1 3.4-3.1c0.8 0 1.3 0.2 1.5 0.3l-0.2 0.6c-0.3-0.1-0.8-0.2-1.3-0.2-1.5 0-2.5 0.9-2.5 2.5 0 1.5 0.9 2.4 2.5 2.4 0.5 0 1-0.1 1.4-0.2z"/><path class="st331" d="m340.7 319h-2.5v2.2h2.8v0.6h-3.7v-6h3.5v0.6h-2.7v1.9h2.5v0.7z"/><path class="st331" d="m361 319h-2.5v2.2h2.8v0.6h-3.7v-6h3.5v0.6h-2.7v1.9h2.5v0.7z"/><path class="st331" d="m372.7 321.8-0.8-1.3c-0.3-0.5-0.6-0.8-0.8-1.2-0.2 0.3-0.4 0.7-0.7 1.2l-0.8 1.3h-1l2-3-1.9-3h1l0.9 1.4c0.2 0.4 0.4 0.7 0.6 1 0.2-0.4 0.3-0.6 0.6-1l0.9-1.4h1l-2 2.9 2 3.1z"/><path class="st331" d="m381.4 315.9c0.4-0.1 0.9-0.1 1.6-0.1 0.8 0 1.4 0.2 1.8 0.5s0.6 0.7 0.6 1.3c0 0.5-0.2 1-0.5 1.3-0.4 0.4-1.2 0.7-2 0.7-0.3 0-0.5 0-0.7-0.1v2.4h-0.8zm0.8 2.8c0.2 0 0.4 0.1 0.7 0.1 1 0 1.6-0.5 1.6-1.3s-0.6-1.2-1.5-1.2c-0.4 0-0.6 0-0.8 0.1z"/><path class="st331" d="m396.7 319h-2.5v2.2h2.8v0.6h-3.7v-6h3.5v0.6h-2.7v1.9h2.5v0.7z"/><path class="st331" d="m404.8 315.9c0.4-0.1 1-0.1 1.6-0.1 0.9 0 1.5 0.2 1.9 0.5 0.3 0.3 0.5 0.7 0.5 1.1 0 0.8-0.5 1.3-1.2 1.5 0.5 0.2 0.8 0.6 1 1.2 0.2 0.8 0.4 1.4 0.5 1.6h-0.9c-0.1-0.2-0.3-0.7-0.4-1.4-0.2-0.8-0.5-1.1-1.3-1.2h-0.8v2.6h-0.8v-5.8zm0.8 2.7h0.9c0.9 0 1.5-0.5 1.5-1.1 0-0.8-0.6-1.1-1.5-1.1-0.4 0-0.7 0-0.8 0.1v2.1z"/><path class="st331" d="m417.6 315.8v6h-0.8v-6z"/><path class="st331" d="m429.2 319h-2.5v2.2h2.8v0.6h-3.7v-6h3.5v0.6h-2.7v1.9h2.5v0.7z"/><path class="st331" d="m437.3 321.8v-6h0.9l2.1 3c0.5 0.7 0.9 1.3 1.2 1.9-0.1-0.8-0.1-1.5-0.1-2.5v-2.5h0.8v6h-0.8l-2.1-3c-0.5-0.7-0.9-1.3-1.2-2 0 0.8 0.1 1.5 0.1 2.5v2.6z"/><path class="st331" d="m455 321.6c-0.3 0.1-0.9 0.3-1.7 0.3-1.8 0-3.2-1.1-3.2-3s1.4-3.1 3.4-3.1c0.8 0 1.3 0.2 1.5 0.3l-0.2 0.6c-0.3-0.1-0.8-0.2-1.3-0.2-1.5 0-2.5 0.9-2.5 2.5 0 1.5 0.9 2.4 2.5 2.4 0.5 0 1-0.1 1.4-0.2z"/><path class="st331" d="m466.2 319h-2.5v2.2h2.8v0.6h-3.7v-6h3.5v0.6h-2.7v1.9h2.5v0.7z"/></g><g><path class="st331" d="m431.1 262.3c0.6 0.7 4.2 5.7 11 14.9 1.6 1.9 2.3 3.3 2.3 4.3v23.7c0 0.3 0 0.6-0.1 1-0.7 1.7-1.9 2.6-3.4 2.6l-0.8-0.1c-1.8-0.6-2.7-1.8-2.7-3.5v-22.5l-10.5-14.2c-1.2-1.5-1.9-2.7-1.9-3.6v-0.1c0-0.2 0-0.4 0.1-0.7 0.7-1.9 1.8-2.8 3.4-2.8 0.9-0.1 1.8 0.3 2.6 1zm22.8-1c1.8 0.6 2.7 1.7 2.7 3.4v0.1c0 0.4-0.1 0.8-0.3 1.4-0.9 1.4-1.9 2.1-3.1 2.1-0.4-0.1-0.7-0.1-1.1-0.2-1.7-0.7-2.5-1.8-2.5-3.3 0-0.5 0.1-0.9 0.2-1.2 0.8-1.7 1.9-2.5 3.3-2.5 0.2 0.1 0.5 0.1 0.8 0.2z" fill="#00465b"/></g><g><path class="st332" d="m480.7 315.5c1 0 1.8 0.7 1.8 1.6s-0.8 1.6-1.8 1.6-1.9-0.7-1.9-1.6 0.9-1.6 1.9-1.6zm0 0.3c-0.8 0-1.4 0.6-1.4 1.2 0 0.7 0.6 1.2 1.4 1.2s1.4-0.6 1.4-1.2c0-0.7-0.6-1.2-1.4-1.2zm-0.3 2h-0.4v-1.6c0.2 0 0.4-0.1 0.7-0.1s0.5 0 0.6 0.1 0.2 0.2 0.2 0.3c0 0.2-0.2 0.3-0.4 0.4 0.2 0 0.3 0.2 0.3 0.4 0.1 0.2 0.1 0.3 0.1 0.4h-0.5c-0.1-0.1-0.1-0.2-0.1-0.4s-0.1-0.2-0.4-0.2h-0.2v0.7zm0-0.8h0.2c0.2 0 0.4-0.1 0.4-0.2s-0.1-0.2-0.4-0.2h-0.2z" fill="#00465b"/></g></g></g></svg>
